<svg id="Layer_1" data-name="Layer 1" xmlns="http://www.w3.org/2000/svg" viewBox="0 0 28 28"><defs><style>.cls-1{fill:none;stroke:#757575;stroke-miterlimit:10;stroke-width:0.6px;}.cls-2{fill:#757575;}</style></defs><title>ICONS_GT</title><line class="cls-1" x1="8.01" y1="13.5" x2="20.2" y2="13.5"/><polyline class="cls-1" points="4.76 11.94 4.76 17.08 9.01 17.08"/><line class="cls-1" x1="5.47" y1="23.22" x2="8.3" y2="23.22"/><line class="cls-1" x1="6.88" y1="18.36" x2="6.88" y2="23.22"/><polyline class="cls-1" points="24.26 11.94 24.26 17.08 20.01 17.08"/><line class="cls-1" x1="23.55" y1="23.22" x2="20.72" y2="23.22"/><line class="cls-1" x1="22.14" y1="18.36" x2="22.14" y2="23.22"/><line class="cls-1" x1="15.31" y1="23.22" x2="12.48" y2="23.22"/><line class="cls-1" x1="13.9" y1="13.5" x2="13.9" y2="23.22"/><path class="cls-1" d="M19.47,6.45a7.88,7.88,0,0,0-11.15,0"/><path class="cls-1" d="M17.63,8.29a5.28,5.28,0,0,0-7.47,0"/><path class="cls-1" d="M15.9,10a2.84,2.84,0,0,0-4,0"/><circle class="cls-2" cx="13.9" cy="11.58" r="0.5"/></svg>