<svg id="Layer_1" data-name="Layer 1" xmlns="http://www.w3.org/2000/svg" viewBox="0 0 28 28"><defs><style>.cls-1{fill:#757575;}</style></defs><title>ICONS_GT</title><path class="cls-1" d="M6.94,12.78a6.37,6.37,0,0,1,12.48-.33H8V13h12.1L20,12.68a6.94,6.94,0,0,0-13.67,0Z"/><rect class="cls-1" x="11.98" y="5.66" width="2.52" height="0.56"/><path class="cls-1" d="M22,14.61v-.67H4.5v.67H8.76v6.21a1.54,1.54,0,1,0,.65,0V14.61h7.65v6.21a1.54,1.54,0,1,0,.65,0V14.61ZM10,22.32a.89.89,0,1,1-1.77,0,.89.89,0,0,1,1.77,0Zm8.3,0a.89.89,0,1,1-.88-.88A.89.89,0,0,1,18.27,22.32Z"/><polygon class="cls-1" points="24.22 11.17 24.22 10.51 21.92 10.51 21.16 13 21.86 13 22.41 11.17 24.22 11.17"/></svg>